<?xml version="1.0" encoding="UTF-8"?> <svg xmlns="http://www.w3.org/2000/svg" id="Calque_1" data-name="Calque 1" viewBox="0 0 567.63 158.95"><defs><style> .cls-1 { fill: #fa4641; } .cls-2 { fill: #000064; } </style></defs><g><g><path class="cls-2" d="M217.68,59.81h-25.65v-11.49h40.75v11.87l-26.22,27.07h26.12v11.49h-40.75v-12.82l25.74-26.12Z"></path><path class="cls-2" d="M236.48,73.49c0-14.63,11.78-26.03,25.93-26.03,12.54,0,23.08,9.12,25.36,21.09.66,3.04.85,6.27.09,9.5h-39.14c1.42,6.75,6.93,10.45,13.68,10.45,4.75,0,9.69-1.9,12.92-5.22l10.83,2.94c-4.09,8.26-14.44,13.2-23.75,13.2-14.63,0-25.93-11.87-25.93-25.93ZM262.32,58.39c-7.22,0-12.25,4.75-13.58,10.26h27.07c-1.33-5.51-6.27-10.26-13.49-10.26Z"></path><path class="cls-2" d="M292.81,73.49c0-14.63,11.78-26.03,25.93-26.03,12.54,0,23.08,9.12,25.36,21.09.67,3.04.86,6.27.09,9.5h-39.14c1.42,6.75,6.93,10.45,13.68,10.45,4.75,0,9.69-1.9,12.92-5.22l10.83,2.94c-4.08,8.26-14.44,13.2-23.75,13.2-14.63,0-25.93-11.87-25.93-25.93ZM318.65,58.39c-7.22,0-12.26,4.75-13.58,10.26h27.07c-1.33-5.51-6.27-10.26-13.49-10.26Z"></path><path class="cls-2" d="M350.09,48.32h12.35v5.7c3.23-3.71,8.17-6.55,14.91-6.55,10.92,0,20.99,7.5,20.99,20.14v31.06h-12.35v-27.83c0-7.31-5.13-11.87-11.11-11.87-7.5,0-12.44,6.08-12.44,13.77v25.93h-12.35v-50.35Z"></path><path class="cls-2" d="M403.29,73.49c0-14.63,11.3-26.03,24.98-26.03,6.36,0,11.49,2.56,15.1,6.36v-21.66h12.35v66.5h-12.35v-5.42c-3.61,3.71-8.64,6.17-15.1,6.17-13.68,0-24.98-11.87-24.98-25.93ZM444.14,73.49c0-7.98-6.55-14.82-14.63-14.82s-14.63,6.84-14.63,14.82,6.27,14.72,14.63,14.72,14.63-6.74,14.63-14.72Z"></path><path class="cls-2" d="M461.33,73.4c0-14.25,11.59-25.93,25.84-25.93s25.93,11.78,25.93,25.93-11.59,26.03-25.93,26.03-25.84-11.87-25.84-26.03ZM501.61,73.4c0-8.07-6.27-14.63-14.44-14.63s-14.34,6.65-14.34,14.63,6.27,14.72,14.34,14.72,14.44-6.74,14.44-14.72Z"></path><path class="cls-2" d="M517.85,73.49c0-14.63,11.78-26.03,25.93-26.03,10.83,0,19.95,6.74,23.75,16.43l-11.3,3.13c-2.19-4.84-6.75-8.45-12.44-8.45-8.07,0-14.34,6.93-14.34,14.91s6.27,14.82,14.34,14.82c5.79,0,10.35-3.51,12.44-8.45l11.3,3.23c-3.71,9.5-12.73,16.34-23.75,16.34-14.63,0-25.93-11.87-25.93-25.93Z"></path></g><g><path class="cls-2" d="M191.93,136.31v-16.47h2.23v16.47h-2.23ZM193.45,136.31v-2.04h8.83v2.04h-8.83Z"></path><path class="cls-2" d="M205.22,136.31v-16.47h2.23v16.47h-2.23ZM206.74,121.88v-2.04h9.33v2.04h-9.33ZM206.74,128.88v-1.97h8.66v1.97h-8.66ZM206.74,136.31v-2.04h9.45v2.04h-9.45Z"></path><path class="cls-2" d="M224.51,136.31v-16.47h2.23v16.47h-2.23ZM225.99,136.31v-2.04h4.58c1.2,0,2.27-.27,3.19-.8.93-.53,1.65-1.26,2.16-2.2.51-.93.77-2.01.77-3.23s-.26-2.27-.78-3.19c-.52-.92-1.24-1.65-2.16-2.18-.92-.53-1.98-.79-3.18-.79h-4.56v-2.04h4.6c1.2,0,2.31.21,3.33.62,1.02.41,1.91.99,2.66,1.73.75.74,1.34,1.61,1.76,2.61.42,1,.63,2.09.63,3.27s-.21,2.26-.63,3.26c-.42,1.01-1,1.88-1.74,2.62-.74.74-1.63,1.32-2.65,1.73-1.02.41-2.12.62-3.31.62h-4.67Z"></path><path class="cls-2" d="M242.27,136.31v-16.47h2.23v16.47h-2.23Z"></path><path class="cls-2" d="M256.01,136.55c-1.14,0-2.21-.22-3.22-.65-1.01-.44-1.88-1.04-2.63-1.82-.75-.78-1.34-1.68-1.77-2.71-.43-1.03-.64-2.14-.64-3.32s.21-2.29.64-3.31,1.02-1.92,1.78-2.69,1.65-1.38,2.67-1.8c1.02-.43,2.13-.64,3.33-.64,1.31,0,2.52.25,3.63.76,1.11.51,2.03,1.23,2.78,2.18l-1.54,1.54c-.52-.76-1.21-1.34-2.06-1.74s-1.79-.6-2.8-.6c-1.2,0-2.27.27-3.19.81-.93.54-1.65,1.28-2.16,2.23-.51.95-.77,2.04-.77,3.28s.26,2.35.78,3.3,1.23,1.69,2.11,2.23c.89.54,1.89.81,3.01.81s2.18-.22,3.03-.66c.85-.44,1.5-1.1,1.95-1.96.45-.86.68-1.92.7-3.17l1.35,1h-7.12v-2.07h8.07v.33c0,1.91-.34,3.52-1.01,4.81-.67,1.29-1.61,2.26-2.8,2.91-1.19.65-2.57.97-4.12.97Z"></path><path class="cls-2" d="M267.09,136.31v-16.47h2.23v16.47h-2.23Z"></path><path class="cls-2" d="M272.17,121.88v-2.04h13.41v2.04h-13.41ZM277.74,136.31v-15.99h2.25v15.99h-2.25Z"></path><path class="cls-2" d="M284.79,136.31l6.76-16.47h1.61l6.72,16.47h-2.42l-5.55-13.93h.85l-5.58,13.93h-2.4ZM288.02,132.59v-1.95h8.66v1.95h-8.66Z"></path><path class="cls-2" d="M302.54,136.31v-16.47h2.23v16.47h-2.23ZM304.06,136.31v-2.04h8.83v2.04h-8.83Z"></path><path class="cls-2" d="M328.27,136.55c-1.17,0-2.26-.22-3.27-.65-1.01-.44-1.9-1.04-2.66-1.83-.76-.78-1.35-1.69-1.78-2.72-.43-1.03-.64-2.13-.64-3.3s.21-2.29.64-3.31c.43-1.02,1.02-1.92,1.77-2.69.75-.78,1.63-1.38,2.63-1.8,1.01-.43,2.09-.64,3.26-.64s2.26.21,3.26.64c1.01.43,1.89,1.03,2.65,1.8s1.35,1.68,1.77,2.71c.42,1.03.63,2.14.63,3.32s-.21,2.27-.63,3.3c-.42,1.03-1.01,1.93-1.76,2.71s-1.63,1.38-2.63,1.82c-1.01.43-2.08.65-3.24.65ZM328.22,134.41c1.17,0,2.21-.27,3.11-.82.9-.55,1.61-1.3,2.12-2.25s.77-2.05.77-3.29c0-.92-.15-1.76-.44-2.53-.29-.77-.71-1.44-1.25-2.01-.54-.57-1.17-1.01-1.91-1.32-.74-.31-1.54-.46-2.41-.46-1.17,0-2.21.27-3.11.81-.9.54-1.61,1.28-2.12,2.23-.51.95-.77,2.04-.77,3.28,0,.92.15,1.77.45,2.55s.72,1.46,1.25,2.02c.53.56,1.16,1,1.9,1.32.74.32,1.54.47,2.41.47ZM336.15,137.48l-7.71-7.71,1.45-1.45,7.69,7.71-1.42,1.45Z"></path><path class="cls-2" d="M346.52,136.55c-1.22,0-2.31-.28-3.27-.83s-1.73-1.31-2.29-2.27-.84-2.04-.84-3.24v-10.37h2.25v10.32c0,.87.18,1.62.55,2.25.36.63.86,1.12,1.48,1.47.63.35,1.33.52,2.12.52s1.49-.17,2.1-.52c.61-.35,1.09-.84,1.45-1.47.36-.63.53-1.38.53-2.23v-10.35h2.25v10.39c0,1.2-.28,2.28-.83,3.23s-1.31,1.7-2.25,2.25-2.03.83-3.25.83Z"></path><path class="cls-2" d="M356.72,136.31v-16.47h2.23v16.47h-2.23Z"></path><path class="cls-2" d="M373.52,136.31l-6.62-16.47h2.44l5.43,13.93h-.88l5.48-13.93h2.4l-6.65,16.47h-1.61Z"></path><path class="cls-2" d="M391.23,136.55c-1.17,0-2.26-.22-3.28-.65-1.01-.44-1.9-1.04-2.66-1.83-.76-.78-1.35-1.69-1.78-2.72-.43-1.03-.64-2.13-.64-3.3s.21-2.29.64-3.31c.43-1.02,1.02-1.92,1.77-2.69s1.63-1.38,2.63-1.8c1-.43,2.09-.64,3.26-.64s2.26.21,3.26.64c1.01.43,1.89,1.03,2.65,1.8s1.35,1.68,1.78,2.71c.43,1.03.64,2.14.64,3.32s-.21,2.27-.64,3.3c-.43,1.03-1.02,1.93-1.77,2.71s-1.63,1.38-2.63,1.82c-1,.43-2.08.65-3.24.65ZM391.18,134.41c1.17,0,2.21-.27,3.11-.82.9-.55,1.61-1.3,2.12-2.25.51-.96.77-2.05.77-3.29,0-.92-.15-1.76-.44-2.53s-.71-1.44-1.25-2.01-1.17-1.01-1.9-1.32c-.73-.31-1.53-.46-2.42-.46-1.17,0-2.2.27-3.1.81-.89.54-1.6,1.28-2.11,2.23-.51.95-.77,2.04-.77,3.28,0,.92.15,1.77.44,2.55s.7,1.46,1.23,2.02c.53.56,1.16,1,1.9,1.32.74.32,1.54.47,2.41.47Z"></path><path class="cls-2" d="M408.95,136.55c-1.22,0-2.31-.28-3.27-.83-.97-.55-1.73-1.31-2.29-2.27-.56-.96-.84-2.04-.84-3.24v-10.37h2.25v10.32c0,.87.18,1.62.55,2.25.36.63.86,1.12,1.48,1.47.62.35,1.33.52,2.12.52s1.49-.17,2.1-.52c.61-.35,1.09-.84,1.45-1.47.36-.63.53-1.38.53-2.23v-10.35h2.25v10.39c0,1.2-.28,2.28-.83,3.23-.55.95-1.31,1.7-2.25,2.25s-2.03.83-3.25.83Z"></path><path class="cls-2" d="M423.53,136.55c-1.28,0-2.38-.24-3.3-.71-.92-.47-1.73-1.16-2.44-2.07l1.52-1.52c.52.73,1.12,1.28,1.8,1.65.68.37,1.52.56,2.52.56s1.77-.21,2.36-.64c.59-.43.89-1.01.89-1.76,0-.62-.15-1.12-.44-1.5s-.68-.69-1.15-.94c-.47-.24-1-.46-1.57-.65s-1.14-.4-1.71-.63-1.1-.52-1.58-.87c-.48-.35-.87-.8-1.15-1.34-.28-.55-.43-1.25-.43-2.1,0-.93.23-1.73.68-2.39s1.07-1.16,1.85-1.52c.78-.36,1.66-.53,2.65-.53,1.08,0,2.04.21,2.9.63.85.42,1.55.97,2.09,1.65l-1.52,1.52c-.49-.57-1.02-1-1.58-1.28s-1.21-.43-1.93-.43c-.89,0-1.59.19-2.11.58-.52.39-.78.93-.78,1.63,0,.55.15,1,.44,1.34.29.34.68.63,1.15.87.47.24,1,.46,1.58.65.58.2,1.15.41,1.72.65.57.24,1.09.54,1.57.9.47.36.86.83,1.15,1.41s.44,1.3.44,2.17c0,1.46-.5,2.59-1.51,3.42-1.01.82-2.37,1.23-4.09,1.23Z"></path><path class="cls-2" d="M437.43,136.31v-16.47h2.23v16.47h-2.23ZM438.93,129.15v-1.88h4.46c.96,0,1.7-.24,2.22-.73.51-.49.77-1.15.77-1.99,0-.79-.26-1.45-.77-1.97-.51-.52-1.25-.78-2.2-.78h-4.49v-1.95h4.56c1.04,0,1.95.2,2.73.6s1.37.95,1.79,1.65c.42.7.63,1.5.63,2.4s-.21,1.75-.63,2.44c-.42.7-1.02,1.24-1.79,1.63s-1.68.58-2.73.58h-4.56ZM446.92,136.31l-5.98-7.38,2.11-.74,6.69,8.12h-2.82Z"></path><path class="cls-2" d="M452.24,136.31v-16.47h2.23v16.47h-2.23ZM453.76,121.88v-2.04h9.33v2.04h-9.33ZM453.76,128.88v-1.97h8.66v1.97h-8.66ZM453.76,136.31v-2.04h9.45v2.04h-9.45Z"></path><path class="cls-2" d="M470.56,136.55c-1.28,0-2.38-.24-3.3-.71-.92-.47-1.73-1.16-2.44-2.07l1.52-1.52c.52.73,1.12,1.28,1.8,1.65.68.37,1.52.56,2.52.56s1.77-.21,2.36-.64c.59-.43.89-1.01.89-1.76,0-.62-.15-1.12-.44-1.5s-.68-.69-1.15-.94c-.47-.24-1-.46-1.57-.65s-1.14-.4-1.71-.63-1.1-.52-1.58-.87c-.48-.35-.87-.8-1.15-1.34-.28-.55-.43-1.25-.43-2.1,0-.93.23-1.73.68-2.39s1.07-1.16,1.85-1.52c.78-.36,1.66-.53,2.65-.53,1.08,0,2.04.21,2.9.63.85.42,1.55.97,2.09,1.65l-1.52,1.52c-.49-.57-1.02-1-1.58-1.28s-1.21-.43-1.93-.43c-.89,0-1.59.19-2.11.58-.52.39-.78.93-.78,1.63,0,.55.15,1,.44,1.34.29.34.68.63,1.15.87.47.24,1,.46,1.58.65.58.2,1.15.41,1.72.65.57.24,1.09.54,1.57.9.47.36.86.83,1.15,1.41s.44,1.3.44,2.17c0,1.46-.5,2.59-1.51,3.42-1.01.82-2.37,1.23-4.09,1.23Z"></path><path class="cls-2" d="M483.49,136.55c-1.28,0-2.38-.24-3.3-.71-.92-.47-1.73-1.16-2.44-2.07l1.52-1.52c.52.73,1.12,1.28,1.8,1.65.68.37,1.52.56,2.52.56s1.77-.21,2.36-.64c.59-.43.89-1.01.89-1.76,0-.62-.15-1.12-.44-1.5s-.68-.69-1.15-.94c-.47-.24-1-.46-1.57-.65s-1.14-.4-1.71-.63-1.1-.52-1.58-.87c-.48-.35-.87-.8-1.15-1.34-.28-.55-.43-1.25-.43-2.1,0-.93.23-1.73.68-2.39s1.07-1.16,1.85-1.52c.78-.36,1.66-.53,2.65-.53,1.08,0,2.04.21,2.9.63.85.42,1.55.97,2.09,1.65l-1.52,1.52c-.49-.57-1.02-1-1.58-1.28s-1.21-.43-1.93-.43c-.89,0-1.59.19-2.11.58-.52.39-.78.93-.78,1.63,0,.55.15,1,.44,1.34.29.34.68.63,1.15.87.47.24,1,.46,1.58.65.58.2,1.15.41,1.72.65.57.24,1.09.54,1.57.9.47.36.86.83,1.15,1.41s.44,1.3.44,2.17c0,1.46-.5,2.59-1.51,3.42-1.01.82-2.37,1.23-4.09,1.23Z"></path><path class="cls-2" d="M492.3,136.31v-16.47h2.23v16.47h-2.23ZM493.82,121.88v-2.04h9.33v2.04h-9.33ZM493.82,128.88v-1.97h8.66v1.97h-8.66ZM493.82,136.31v-2.04h9.45v2.04h-9.45Z"></path><path class="cls-2" d="M506.49,136.31v-16.47h1.57l6.98,11.46h-1.07l6.98-11.46h1.57v16.47h-2.23v-12.55l.5.14-5.48,9.04h-1.59l-5.48-9.04.5-.14v12.55h-2.23Z"></path><path class="cls-2" d="M526.59,136.31v-16.47h2.23v16.47h-2.23ZM528.09,136.31v-1.95h4.98c.95,0,1.69-.28,2.23-.84.54-.56.81-1.24.81-2.03,0-.54-.12-1.02-.36-1.45-.24-.43-.58-.77-1.03-1.03-.45-.26-.98-.39-1.6-.39h-5.03v-1.95h4.7c.81,0,1.44-.21,1.91-.63.47-.42.7-1.02.7-1.82s-.24-1.4-.73-1.82-1.15-.63-1.97-.63h-4.6v-1.95h4.68c1.08,0,1.97.19,2.69.58.72.39,1.27.9,1.64,1.53s.56,1.33.56,2.09c0,.89-.24,1.66-.72,2.33s-1.19,1.19-2.12,1.57l.19-.71c1.06.38,1.89.95,2.48,1.72s.89,1.67.89,2.72c0,.87-.21,1.65-.64,2.35-.43.7-1.04,1.25-1.84,1.67-.8.42-1.78.63-2.93.63h-4.87Z"></path><path class="cls-2" d="M541.56,136.31v-16.47h2.23v16.47h-2.23ZM543.08,136.31v-2.04h8.83v2.04h-8.83Z"></path><path class="cls-2" d="M554.85,136.31v-16.47h2.23v16.47h-2.23ZM556.37,121.88v-2.04h9.33v2.04h-9.33ZM556.37,128.88v-1.97h8.66v1.97h-8.66ZM556.37,136.31v-2.04h9.45v2.04h-9.45Z"></path></g></g><path class="cls-1" d="M142.25,31.1C127.12,11.65,104.35.5,79.74.5h-.06c-20.98.02-40.79,8.21-55.78,23.09C8.88,38.5.6,58.24.6,79.16s6.31,32.85,11.6,39.55c6.28,7.95,14.97,12.74,23.32,12.88,14.2.08,41.26-7.76,56.14-22.63,5.34-5.37,8.83-10.92,10.41-16.52,4.45-2.45,7.51-5.22,9.35-7.2,1.59-1.71,3.01-3.39,4.39-5.01,5.5-6.5,9.84-11.63,20.97-14.39l1.22-5.66c-16.71-13.2-32.48-13.6-48.19-1.22-.2.15-.39.31-.59.47-.21-.19-.43-.37-.64-.55-12.45-10.44-34.92-15.38-50.67-14.87l-3.1,2.92c-1.98,20.82,5.4,34.11,24.67,44.44,1.13.61,2.27,1.17,3.42,1.7-1.57,2.67-3.05,5.3-4.5,7.87-7.25,12.91-13.01,23.15-22.79,24.2-11.16-.22-28.55-12.77-28.55-45.98,0-19.2,7.6-37.31,21.4-51,13.78-13.67,31.98-21.2,51.24-21.22h.05c22.6,0,43.53,10.24,57.42,28.11,13.92,17.9,18.6,41.13,12.83,63.75-6.37,25.01-25.84,44.55-50.79,51.01-21.2,5.49-42.95,1.8-60.38-10.08-1.52.14-2.19.19-3.63.25-1.03,1.25-1.83,2.1-2.74,3.13,13.78,10.28,30.31,15.64,47.37,15.64,6.95,0,14-.89,20.98-2.7,27.23-7.05,48.47-28.38,55.43-55.66,6.26-24.56,1.16-49.82-13.99-69.3ZM128.88,61.61c-8.76,3.53-13.27,8.87-18,14.46-1.33,1.57-2.7,3.19-4.18,4.78-.87.93-2.08,2.09-3.66,3.29-.25-5.8-2.49-12.8-9.17-20.18,11.75-9.23,22.74-10.03,35.01-2.36ZM89.03,68.23c4.46,4.93,8.54,11.81,7.39,19.84-5.6,2.52-13.8,4.42-23.93,1.66,4.84-7.67,10.19-15.31,16.54-21.5ZM62.51,85.7c-13.57-7.28-22.44-16.17-21.51-35.27,13.99.18,32.99,4.68,43.36,13.34-7.07,6.94-12.88,15.39-18.11,23.75-1.25-.55-2.51-1.16-3.75-1.82ZM64,104.1c1.59-2.84,3.23-5.75,4.98-8.68,9.79,3.08,18.16,2.41,24.68.52-1.57,2.82-3.77,5.65-6.57,8.48-8.8,8.85-22.93,15.08-35.1,18.27,4.37-4.96,8.06-11.53,12.02-18.58Z"></path></svg> 